<svg width="62" height="49" viewBox="0 0 62 49" fill="none" xmlns="http://www.w3.org/2000/svg">
<path d="M2.31627 24.9383C7.85185 46.158 25.7656 48.772 34.0305 47.4266C43.8331 46.3694 62.9193 40.3918 60.8435 24.9383C58.2487 5.62144 44.4097 -2.16297 35.1838 2.1617C25.9578 6.48637 10.389 2.16169 4.33445 20.3253C-0.509179 34.8562 0.97082 29.4552 2.31627 24.9383Z" stroke="black"/>
<path d="M30.9844 3.30649V8.49609" stroke="black"/>
<path d="M32.7143 42.5168V47.7065" stroke="black"/>
<path d="M54.6259 25.2182L60.9688 24.6415" stroke="black"/>
<path d="M2.72986 26.948L9.07271 28.1013" stroke="black"/>
<path d="M32.6574 24.7643C32.5131 24.8593 30.2289 26.5585 31.2432 26.4371C31.6624 26.3869 33.0846 26.4104 33.2566 26.153C33.9521 25.1122 33.6845 24.7643 31.7945 24.7643" stroke="black" stroke-linecap="round"/>
<path d="M32.6574 25.7585C32.6574 23.0363 33.1526 20.0957 32.3937 17.4101C32.2064 16.7471 31.7617 16.1249 31.6267 15.4532C31.5544 15.0936 31.6415 13.8484 31.1473 13.6857" stroke="black" stroke-linecap="round"/>
<path d="M32.4417 25.7585C34.3609 27.0502 36.0684 28.4585 38.314 29.5223C39.5973 30.1303 40.9622 30.7486 42.3647 31.2346C42.8516 31.4034 43.3261 31.4856 43.659 31.787C44.1635 32.2437 46.0692 33.1933 45.169 32.0079" stroke="black" stroke-linecap="round"/>
</svg>
